<?xml version="1.0" encoding="utf-8"?>
<!-- Generator: Adobe Illustrator 24.1.1, SVG Export Plug-In . SVG Version: 6.00 Build 0)  -->
<svg version="1.1" id="Capa_1" xmlns="http://www.w3.org/2000/svg" xmlns:xlink="http://www.w3.org/1999/xlink" x="0px" y="0px"
	 viewBox="0 0 512 512" style="enable-background:new 0 0 512 512;" xml:space="preserve">
<style type="text/css">
	.st0{fill:#A39797;}
</style>
<g>
	<g>
		<g>
			<g>
				<g>
					<path class="st0" d="M502,266.1h-26.9c-5.5,0-10-4.5-10-10s4.5-10,10-10H502c5.5,0,10,4.5,10,10
						C512,261.7,507.5,266.1,502,266.1z"/>
				</g>
			</g>
			<g>
				<g>
					<path class="st0" d="M413.5,110.1c-2.6,0-5.1-1-7.1-2.9c-3.9-3.9-3.9-10.2,0-14.1l19-19c3.9-3.9,10.2-3.9,14.1,0
						s3.9,10.2,0,14.1l-19,19C418.6,109.1,416.1,110.1,413.5,110.1z"/>
				</g>
			</g>
			<g>
				<g>
					<path class="st0" d="M432.5,441.2c-2.6,0-5.1-1-7.1-2.9l-19-19c-3.9-3.9-3.9-10.2,0-14.1s10.2-3.9,14.1,0l19,19
						c3.9,3.9,3.9,10.2,0,14.1C437.6,440.2,435.1,441.2,432.5,441.2L432.5,441.2z"/>
				</g>
			</g>
		</g>
		<g>
			<g>
				<g>
					<path class="st0" d="M36.9,266.1H10c-5.5,0-10-4.5-10-10s4.5-10,10-10h26.9c5.5,0,10,4.5,10,10
						C46.9,261.7,42.4,266.1,36.9,266.1z"/>
				</g>
			</g>
			<g>
				<g>
					<path class="st0" d="M79.5,441.2c-2.6,0-5.1-1-7.1-2.9c-3.9-3.9-3.9-10.2,0-14.1l19-19c3.9-3.9,10.2-3.9,14.1,0
						s3.9,10.2,0,14.1l-19,19C84.6,440.2,82,441.2,79.5,441.2L79.5,441.2z"/>
				</g>
			</g>
			<g>
				<g>
					<path class="st0" d="M98.5,110.1c-2.6,0-5.1-1-7.1-2.9l-19-19c-3.9-3.9-3.9-10.2,0-14.1s10.2-3.9,14.1,0l19,19
						c3.9,3.9,3.9,10.2,0,14.1C103.6,109.1,101.1,110.1,98.5,110.1z"/>
				</g>
			</g>
		</g>
		<g>
			<path class="st0" d="M348.2,170.7c-4.2,0-8-2.7-9.4-6.6c-1.4-3.9-0.2-8.3,2.9-11c3.3-2.8,8.1-3.1,11.7-0.9
				c3.5,2.2,5.3,6.4,4.5,10.4C357.1,167.2,352.9,170.7,348.2,170.7z"/>
		</g>
		<path class="st0" d="M450.2,262.8c3.4-3.9,3.3-9.8-0.3-13.6l0,0l-62.5-63.4c-3.9-3.9-10.2-4-14.1-0.1s-4,10.2-0.1,14.1l45.7,46.4
			h-65.3l-87.5-88V92.5l42.8,42.9c3.9,3.9,10.2,3.9,14.1,0s3.9-10.2,0-14.1l-59.9-59.9l-0.1-0.1c-3.9-3.9-10.3-3.9-14.1,0.1l0,0
			L62.2,249.1c-0.1,0.1-0.3,0.3-0.5,0.6c-3.4,4-3.2,9.9,0.5,13.5l0,0l186.7,187.7l0,0c4,3.5,10,3.5,14,0.1l0.1-0.1l186.6-187.7
			C449.8,263.2,449.9,263,450.2,262.8L450.2,262.8z M335.3,256.1L256,335.8l-79.3-79.7l79.3-79.7L335.3,256.1z M246,92.6v65.5
			l-87.5,88H93.3L246,92.6z M158.5,266.1l87.5,88v65.5L93.4,266.1H158.5z M266,419.6v-65.5l87.5-88h65.1L266,419.6z"/>
	</g>
</g>
</svg>
