<?xml version="1.0" encoding="utf-8"?>
<!-- Generator: Adobe Illustrator 24.1.1, SVG Export Plug-In . SVG Version: 6.00 Build 0)  -->
<svg version="1.1" id="Capa_1" xmlns="http://www.w3.org/2000/svg" xmlns:xlink="http://www.w3.org/1999/xlink" x="0px" y="0px"
	 viewBox="0 0 512 512" style="enable-background:new 0 0 512 512;" xml:space="preserve">
<style type="text/css">
	.st0{fill:#A39797;}
</style>
<g>
	<path class="st0" d="M256,0L34.3,128v256L256,512l221.7-128V128L256,0z M271,151.7h135.6L271,230V151.7L271,151.7z M241,230
		l-135.6-78.3H241V230z M226.4,256.3l-68.2,39.2l-68-117.8L226.4,256.3z M241,282.6v156.1l-67.7-117.2L241,282.6z M271,282
		l67.8,39.1L271,438.6V282z M286.1,256l135.6-78.3l-67.8,117.4L286.1,256z M271,121.6V43.4l135.6,78.3L271,121.6L271,121.6z
		 M241,121.6H105.4L241,43.4V121.6z M64.4,192.9l67.8,117.5l-67.8,39C64.4,349.4,64.4,192.9,64.4,192.9z M147.2,336.4l67.6,117.1
		L79.4,375.4L147.2,336.4z M364.8,336.2l67.8,39.1L297,453.6L364.8,336.2z M379.9,310.2l67.8-117.4v156.5L379.9,310.2z"/>
</g>
</svg>
